<svg width="25" height="24" viewBox="0 0 25 24" fill="none" xmlns="http://www.w3.org/2000/svg">
<path fill-rule="evenodd" clip-rule="evenodd" d="M21.7192 19C21.7192 20.6569 20.3761 22 18.7192 22H6.71924C5.06238 22 3.71924 20.6569 3.71924 19V5C3.71924 3.34315 5.06238 2 6.71924 2H16.7192L16.7299 2.01071C17.4328 2.07025 18.0953 2.3761 18.5979 2.87868L20.8406 5.12132C21.3431 5.6239 21.649 6.28645 21.7085 6.98929L21.7192 7V19ZM18.7192 20H6.71924C6.16695 20 5.71924 19.5523 5.71924 19V5C5.71924 4.44772 6.16695 4 6.71924 4H15.7192V6C15.7192 7.10457 16.6147 8 17.7192 8H19.7192V19C19.7192 19.5523 19.2715 20 18.7192 20Z" fill="#356DF5"/>
<path d="M13.7192 10C13.7192 9.44772 13.2715 9 12.7192 9C12.167 9 11.7192 9.44772 11.7192 10L11.7192 12H9.71924C9.16695 12 8.71924 12.4477 8.71924 13C8.71924 13.5523 9.16695 14 9.71924 14H11.7192L11.7192 16C11.7192 16.5523 12.167 17 12.7192 17C13.2715 17 13.7192 16.5523 13.7192 16L13.7192 14H15.7192C16.2715 14 16.7192 13.5523 16.7192 13C16.7192 12.4477 16.2715 12 15.7192 12H13.7192L13.7192 10Z" fill="#356DF5"/>
</svg>
