<svg width="25" height="24" viewBox="0 0 25 24" fill="none" xmlns="http://www.w3.org/2000/svg">
<path fill-rule="evenodd" clip-rule="evenodd" d="M3.71924 2C4.27152 2 4.71924 2.44772 4.71924 3V19C4.71924 19.5523 5.16695 20 5.71924 20H21.7192C22.2715 20 22.7192 20.4477 22.7192 21C22.7192 21.5523 22.2715 22 21.7192 22H5.71924C4.06238 22 2.71924 20.6569 2.71924 19V3C2.71924 2.44772 3.16695 2 3.71924 2Z" fill="#F5F1F7"/>
<path fill-rule="evenodd" clip-rule="evenodd" d="M7.71924 8C8.27152 8 8.71924 8.44772 8.71924 9V17C8.71924 17.5523 8.27152 18 7.71924 18C7.16695 18 6.71924 17.5523 6.71924 17V9C6.71924 8.44772 7.16695 8 7.71924 8Z" fill="#F5F1F7"/>
<path fill-rule="evenodd" clip-rule="evenodd" d="M11.7192 14C12.2715 14 12.7192 14.4477 12.7192 15V17C12.7192 17.5523 12.2715 18 11.7192 18C11.167 18 10.7192 17.5523 10.7192 17V15C10.7192 14.4477 11.167 14 11.7192 14Z" fill="#F5F1F7"/>
<path fill-rule="evenodd" clip-rule="evenodd" d="M15.7192 4C16.2715 4 16.7192 4.44772 16.7192 5V17C16.7192 17.5523 16.2715 18 15.7192 18C15.167 18 14.7192 17.5523 14.7192 17V5C14.7192 4.44772 15.167 4 15.7192 4Z" fill="#F5F1F7"/>
<path fill-rule="evenodd" clip-rule="evenodd" d="M19.7192 10C20.2715 10 20.7192 10.4477 20.7192 11V17C20.7192 17.5523 20.2715 18 19.7192 18C19.167 18 18.7192 17.5523 18.7192 17V11C18.7192 10.4477 19.167 10 19.7192 10Z" fill="#F5F1F7"/>
</svg>
