<svg width="20" height="21" viewBox="0 0 20 21" fill="none" xmlns="http://www.w3.org/2000/svg">
<path fill-rule="evenodd" clip-rule="evenodd" d="M0 15.514C2.07459e-06 15.1332 0.154705 14.7687 0.428635 14.5041L1.45759 13.5103C1.84928 13.1319 2.06977 12.6103 2.06814 12.0657L2.05867 8.91269C2.04543 4.50128 5.61789 0.918091 10.0293 0.918091C14.4314 0.918091 18 4.48668 18 8.88876L18 12.0897C18 12.6201 18.2107 13.1288 18.5858 13.5039L19.5858 14.5039C19.851 14.7691 20 15.1288 20 15.5039C20 16.2849 19.3668 16.9181 18.5858 16.9181H14C14 19.1272 12.2091 20.9181 10 20.9181C7.79086 20.9181 6 19.1272 6 16.9181H1.40408C0.628628 16.9181 0 16.2895 0 15.514ZM8 16.9181C8 18.0227 8.89543 18.9181 10 18.9181C11.1046 18.9181 12 18.0227 12 16.9181H8ZM16 12.0897C16 13.1505 16.4214 14.1679 17.1716 14.9181L2.87851 14.9181C3.64222 14.1641 4.07136 13.1342 4.06813 12.0597L4.05867 8.90669C4.04875 5.60219 6.7248 2.91809 10.0293 2.91809C13.3268 2.91809 16 5.59125 16 8.88876L16 12.0897Z" fill="#F5F1F7"/>
</svg>
