<svg width="24" height="25" viewBox="0 0 24 25" fill="none" xmlns="http://www.w3.org/2000/svg">
<path fill-rule="evenodd" clip-rule="evenodd" d="M7 2.91809C7.55228 2.91809 8 3.36581 8 3.91809V4.91809H16V3.91809C16 3.36581 16.4477 2.91809 17 2.91809C17.5523 2.91809 18 3.36581 18 3.91809V4.91809H19C20.6569 4.91809 22 6.26124 22 7.91809V19.9181C22 21.5749 20.6569 22.9181 19 22.9181H5C3.34315 22.9181 2 21.5749 2 19.9181V7.91809C2 6.26124 3.34315 4.91809 5 4.91809H6V3.91809C6 3.36581 6.44772 2.91809 7 2.91809ZM16 6.91809V7.91809C16 8.47038 16.4477 8.91809 17 8.91809C17.5523 8.91809 18 8.47038 18 7.91809V6.91809H19C19.5523 6.91809 20 7.36581 20 7.91809V10.9181H4V7.91809C4 7.36581 4.44772 6.91809 5 6.91809H6V7.91809C6 8.47038 6.44772 8.91809 7 8.91809C7.55228 8.91809 8 8.47038 8 7.91809V6.91809H16ZM4 12.9181V19.9181C4 20.4704 4.44772 20.9181 5 20.9181H19C19.5523 20.9181 20 20.4704 20 19.9181V12.9181H4Z" fill="#F5F1F7"/>
</svg>
