<svg width="25" height="24" viewBox="0 0 25 24" fill="none" xmlns="http://www.w3.org/2000/svg">
<path fill-rule="evenodd" clip-rule="evenodd" d="M5.71924 22C4.06238 22 2.71924 20.6568 2.71924 19V11.3361C2.71924 10.4856 3.0802 9.67512 3.71234 9.10619L10.7123 2.80619C11.8533 1.77937 13.5852 1.77937 14.7261 2.80619L21.7261 9.10619C22.3583 9.67512 22.7192 10.4856 22.7192 11.3361V19C22.7192 20.6568 21.3761 22 19.7192 22H5.71924ZM20.7192 11.3361V19C20.7192 19.5523 20.2715 20 19.7192 20H16.7192V15C16.7192 13.3431 15.3761 12 13.7192 12H11.7192C10.0624 12 8.71924 13.3431 8.71924 15V20H5.71924C5.16695 20 4.71924 19.5523 4.71924 19V11.3361C4.71924 11.0526 4.83956 10.7824 5.05027 10.5928L12.0503 4.29278C12.4306 3.9505 13.0079 3.9505 13.3882 4.29278L20.3882 10.5928C20.5989 10.7824 20.7192 11.0526 20.7192 11.3361ZM10.7192 20V15C10.7192 14.4477 11.167 14 11.7192 14H13.7192C14.2715 14 14.7192 14.4477 14.7192 15V20H10.7192Z" fill="#356DF5"/>
</svg>
