<svg width="52" height="48" viewBox="0 0 52 48" fill="none" xmlns="http://www.w3.org/2000/svg">
<path d="M25.4085 0C31.6488 0 38.3371 3.16197 41.4396 8.68009C42.7507 11.0128 43.371 13.6702 43.5473 16.3154C43.7517 19.3844 43.6448 22.8691 42.565 25.7798C42.0671 27.1229 41.3722 28.3934 40.5206 29.5515C40.087 30.1418 39.6119 30.7036 39.1026 31.2316C38.8443 31.4992 38.5778 31.7586 38.3018 32.0088C38.138 32.1579 37.5872 32.4786 37.5229 32.6757C38.1037 30.8864 38.222 29.0705 38.3039 27.2076C38.3879 25.2876 38.4149 23.3593 38.2054 21.4454C37.5021 15.0275 33.3592 9.74225 27.4862 6.99289C24.5507 5.61821 21.3051 4.92577 18.0563 4.92577C15.7152 4.92577 13.4643 5.28322 11.3711 5.93482C14.7578 2.21522 19.8716 0 25.4085 0Z" fill="#F4B503"/>
<path d="M18.0569 6.88574C23.5752 6.88574 28.5199 9.09585 31.8339 12.5652C29.7729 11.9576 27.6019 11.6389 25.4091 11.6389C14.2345 11.6389 5.14384 19.7021 5.14384 29.6139L0 22.9019C0 14.0706 8.10111 6.88574 18.0569 6.88574Z" fill="#C60051"/>
<path d="M51.3476 29.0389C51.3404 29.0706 51.3331 29.1033 51.3259 29.1349C50.9006 30.9763 50.2761 32.8075 49.1714 34.3671C46.7307 37.8119 42.9374 40.7564 38.5912 41.2395C38.1877 41.2844 37.7811 41.3069 37.3745 41.3069C33.1549 41.3069 29.374 39.6197 26.8296 36.9735C27.8451 37.2707 29.0203 37.4851 30.3335 37.4851C31.9133 37.4851 33.6849 37.1787 35.5842 36.3535C35.5925 36.3505 35.5997 36.3474 35.606 36.3423C35.6174 36.3372 35.6329 36.331 35.6454 36.3249C35.6495 36.3198 35.6547 36.3198 35.6599 36.3178C37.0218 35.9195 38.4969 34.5897 39.5424 33.6828C40.6699 32.7054 41.6751 31.6116 42.5225 30.3901C44.567 27.4457 45.5099 24.0549 45.737 20.5243C45.9497 17.2163 45.7661 13.5712 44.6531 10.4235C44.4529 9.85671 44.2185 9.30215 43.9498 8.76392C44.0276 8.92018 44.4601 9.11116 44.6095 9.21942C44.8636 9.40326 45.1136 9.59322 45.3584 9.78931C45.8242 10.1631 46.2723 10.5584 46.6996 10.9761C47.5377 11.7952 48.2949 12.696 48.9464 13.6662C51.9202 18.1038 52.5073 23.9211 51.3476 29.0389Z" fill="#F4B503"/>
<path d="M15.03 29.0073L9.27002 24.1877L15.03 19.3702L20.791 24.1877L15.03 29.0073Z" fill="#009B42"/>
<path d="M8.78284 30.1583L8.80359 26.4458L13.9505 30.7925C14.0491 30.8752 13.9402 31.7117 13.9371 31.8741C13.8925 34.6152 13.7452 37.5832 14.7077 40.1987C11.7349 38.4012 9.55665 35.4895 8.94777 32.0824C8.8347 31.4461 8.77973 30.8037 8.78284 30.1583Z" fill="#009B42"/>
<path d="M29.7814 47.836C26.0856 47.8125 22.4095 46.448 19.7706 43.811C18.1587 42.2004 17.0271 40.1568 16.4597 37.9701C15.8394 35.5803 16.1433 33.2017 16.1433 30.7699L21.2954 26.459V29.0071C21.2954 35.1013 25.9715 40.2068 31.5479 42.2729C32.1256 42.4864 32.7189 42.6631 33.3185 42.8071C35.7353 43.3902 38.2839 43.4301 40.7184 42.9214C40.4995 42.9674 39.9062 43.8764 39.7029 44.0663C39.3523 44.3921 38.9789 44.7006 38.5961 44.9886C37.7808 45.6014 36.895 46.1222 35.9635 46.544C34.0238 47.4234 31.8995 47.8493 29.7814 47.836Z" fill="#009B42"/>
<path d="M25.4085 0C31.6488 0 38.3371 3.16197 41.4396 8.68009C42.7507 11.0128 43.371 13.6702 43.5473 16.3154C43.7517 19.3844 43.6448 22.8691 42.565 25.7798C42.0671 27.1229 41.3722 28.3934 40.5206 29.5515C40.087 30.1418 39.6119 30.7036 39.1026 31.2316C38.8443 31.4992 38.5778 31.7586 38.3018 32.0088C38.138 32.1579 37.5872 32.4786 37.5229 32.6757C38.1037 30.8864 38.222 29.0705 38.3039 27.2076C38.3879 25.2876 38.4149 23.3593 38.2054 21.4454C37.5021 15.0275 33.3592 9.74225 27.4862 6.99289C24.5507 5.61821 21.3051 4.92577 18.0563 4.92577C15.7152 4.92577 13.4643 5.28322 11.3711 5.93482C14.7578 2.21522 19.8716 0 25.4085 0Z" fill="#60B7FF"/>
<path d="M18.0569 6.88574C23.5752 6.88574 28.5199 9.09585 31.8339 12.5652C29.7729 11.9576 27.6019 11.6389 25.4091 11.6389C14.2345 11.6389 5.14384 19.7021 5.14384 29.6139L0 22.9019C0 14.0706 8.10111 6.88574 18.0569 6.88574Z" fill="white"/>
<path d="M51.3476 29.0389C51.3404 29.0706 51.3331 29.1033 51.3259 29.1349C50.9006 30.9763 50.2761 32.8075 49.1714 34.3671C46.7307 37.8119 42.9374 40.7564 38.5912 41.2395C38.1877 41.2844 37.7811 41.3069 37.3745 41.3069C33.1549 41.3069 29.374 39.6197 26.8296 36.9735C27.8451 37.2707 29.0203 37.4851 30.3335 37.4851C31.9133 37.4851 33.6849 37.1787 35.5842 36.3535C35.5925 36.3505 35.5997 36.3474 35.606 36.3423C35.6174 36.3372 35.6329 36.331 35.6454 36.3249C35.6495 36.3198 35.6547 36.3198 35.6599 36.3178C37.0218 35.9195 38.4969 34.5897 39.5424 33.6828C40.6699 32.7054 41.6751 31.6116 42.5225 30.3901C44.567 27.4457 45.5099 24.0549 45.737 20.5243C45.9497 17.2163 45.7661 13.5712 44.6531 10.4235C44.4529 9.85671 44.2185 9.30215 43.9498 8.76392C44.0276 8.92018 44.4601 9.11116 44.6095 9.21942C44.8636 9.40326 45.1136 9.59322 45.3584 9.78931C45.8242 10.1631 46.2723 10.5584 46.6996 10.9761C47.5377 11.7952 48.2949 12.696 48.9464 13.6662C51.9202 18.1038 52.5073 23.9211 51.3476 29.0389Z" fill="#448DC9"/>
<path d="M15.03 29.0073L9.27002 24.1877L15.03 19.3702L20.791 24.1877L15.03 29.0073Z" fill="#005296"/>
<path d="M8.78284 30.1583L8.80359 26.4458L13.9505 30.7925C14.0491 30.8752 13.9402 31.7117 13.9371 31.8741C13.8925 34.6152 13.7452 37.5832 14.7077 40.1987C11.7349 38.4012 9.55665 35.4895 8.94777 32.0824C8.8347 31.4461 8.77973 30.8037 8.78284 30.1583Z" fill="#005296"/>
<path d="M29.7814 47.836C26.0856 47.8125 22.4095 46.448 19.7706 43.811C18.1587 42.2004 17.0271 40.1568 16.4597 37.9701C15.8394 35.5803 16.1433 33.2017 16.1433 30.7699L21.2954 26.459V29.0071C21.2954 35.1013 25.9715 40.2068 31.5479 42.2729C32.1256 42.4864 32.7189 42.6631 33.3185 42.8071C35.7353 43.3902 38.2839 43.4301 40.7184 42.9214C40.4995 42.9674 39.9062 43.8764 39.7029 44.0663C39.3523 44.3921 38.9789 44.7006 38.5961 44.9886C37.7808 45.6014 36.895 46.1222 35.9635 46.544C34.0238 47.4234 31.8995 47.8493 29.7814 47.836Z" fill="#005296"/>
</svg>
